# xmcd CD database file
#
# Track frame offsets:
#	150
#	18737
#	48652
#	76795
#	91832
#	113612
#	130857
#	146435
#	160655
#	176342
#	193112
#	217335
#	239392
#	261277
#	279102
#	299462
#
# Disc length: 4422 seconds
#
# Revision: 1
# Processed by: cddbd v1.4PL0 Copyright (c) Steve Scherf et al.
# Submitted via: Feurio! 1.63 - http://www.feurio.com
#
DISCID=e2114410
DTITLE=Thorak - Thorak
DYEAR=1900
DGENRE=
TTITLE0=Stalingrad - Stalingrad - Der letzte flug
TTITLE1=The Protagonist - The Protagonist - Kämpfende Pferde
TTITLE2=Von Thronstal - Von Thronstal - Fahnehträger (defile I)
TTITLE3=The Days of The Trumpet Call - The Days of The Trumpet Call - 
TTITLE3=Morgenröte
TTITLE4=Forthcoming Fire - Forthcoming Fire - Pietät
TTITLE5=Karceral Flesh - Karceral Flesh - Fahnenträger (defile II)
TTITLE6=Ecodalia - Ecodalia - Leda
TTITLE7=Skrol - Skrol - Ewigkeit
TTITLE8=Egoaedes - Egoaedes - Kameradschaft (defile I)
TTITLE9=Turbund Sturmwerk - Turbund Sturmwerk - Hingabe
TTITLE10=Source Direkt - Source Direkt - Prometheus
TTITLE11=Near Death Experience - Near Death Experience - Zwei Menschen
TTITLE12=Siela - Siela - Die Muse
TTITLE13=Death in June - Death in June - Kameradschaft (defile II)
TTITLE14=Andromeda Complex - Andromeda Complex - Das Licht
TTITLE15=Jack or Jive - Jack or Jive - Mutter und Kind
EXTD=
EXTT0=
EXTT1=
EXTT2=
EXTT3=
EXTT4=
EXTT5=
EXTT6=
EXTT7=
EXTT8=
EXTT9=
EXTT10=
EXTT11=
EXTT12=
EXTT13=
EXTT14=
EXTT15=
PLAYORDER=
